<svg xmlns="http://www.w3.org/2000/svg" xmlns:xlink="http://www.w3.org/1999/xlink" style="isolation:isolate" viewBox="0 0 300 80" width="300pt" height="80pt"><defs><clipPath id="_clipPath_fginA0LcJ0lNnhxcD6g4hXC7eR0P3Zq8"><rect width="300" height="80"/></clipPath></defs><g clip-path="url(#_clipPath_fginA0LcJ0lNnhxcD6g4hXC7eR0P3Zq8)"><rect width="300" height="80" style="fill:rgb(0,0,255)" fill-opacity="0"/><path d=" M 83.918 58.719 L 83.918 24.772 L 95.868 24.772 L 95.868 58.979 L 95.868 58.979 Q 95.868 63.352 94.028 65.896 L 94.028 65.896 L 94.028 65.896 Q 92.188 68.44 88.843 69.468 L 88.843 69.468 L 88.843 69.468 Q 85.498 70.496 80.973 70.323 L 80.973 70.323 L 80.973 70.323 Q 80.519 70.302 80.021 70.302 L 80.021 70.302 L 80.021 70.302 Q 79.523 70.302 78.808 70.237 L 78.808 70.237 L 78.808 61.404 L 78.808 61.404 Q 79.241 61.447 79.555 61.469 L 79.555 61.469 L 79.555 61.469 Q 79.869 61.49 80.194 61.49 L 80.194 61.49 L 80.194 61.49 Q 82.337 61.49 83.127 60.83 L 83.127 60.83 L 83.127 60.83 Q 83.918 60.17 83.918 58.719 L 83.918 58.719 Z  M 89.915 21.309 L 89.915 21.309 L 89.915 21.309 Q 87.468 21.309 85.736 19.706 L 85.736 19.706 L 85.736 19.706 Q 84.004 18.104 84.004 15.853 L 84.004 15.853 L 84.004 15.853 Q 84.004 13.601 85.736 11.999 L 85.736 11.999 L 85.736 11.999 Q 87.468 10.397 89.893 10.397 L 89.893 10.397 L 89.893 10.397 Q 92.339 10.397 94.06 11.999 L 94.06 11.999 L 94.06 11.999 Q 95.782 13.601 95.782 15.853 L 95.782 15.853 L 95.782 15.853 Q 95.782 18.104 94.06 19.706 L 94.06 19.706 L 94.06 19.706 Q 92.339 21.309 89.915 21.309 Z  M 108.79 58.546 L 108.79 58.546 L 108.79 58.546 Q 105.607 58.546 103.171 57.496 L 103.171 57.496 L 103.171 57.496 Q 100.736 56.446 99.35 54.303 L 99.35 54.303 L 99.35 54.303 Q 97.965 52.159 97.965 48.847 L 97.965 48.847 L 97.965 48.847 Q 97.965 46.119 98.896 44.181 L 98.896 44.181 L 98.896 44.181 Q 99.827 42.244 101.494 41.01 L 101.494 41.01 L 101.494 41.01 Q 103.161 39.776 105.38 39.126 L 105.38 39.126 L 105.38 39.126 Q 107.599 38.477 110.175 38.282 L 110.175 38.282 L 110.175 38.282 Q 112.968 38.065 114.667 37.751 L 114.667 37.751 L 114.667 37.751 Q 116.367 37.437 117.125 36.864 L 117.125 36.864 L 117.125 36.864 Q 117.882 36.29 117.882 35.337 L 117.882 35.337 L 117.882 35.251 L 117.882 35.251 Q 117.882 33.952 116.886 33.259 L 116.886 33.259 L 116.886 33.259 Q 115.891 32.566 114.332 32.566 L 114.332 32.566 L 114.332 32.566 Q 112.622 32.566 111.55 33.313 L 111.55 33.313 L 111.55 33.313 Q 110.478 34.06 110.262 35.597 L 110.262 35.597 L 99.264 35.597 L 99.264 35.597 Q 99.48 32.566 101.201 30.001 L 101.201 30.001 L 101.201 30.001 Q 102.922 27.435 106.235 25.887 L 106.235 25.887 L 106.235 25.887 Q 109.547 24.339 114.505 24.339 L 114.505 24.339 L 114.505 24.339 Q 118.077 24.339 120.913 25.173 L 120.913 25.173 L 120.913 25.173 Q 123.749 26.007 125.741 27.49 L 125.741 27.49 L 125.741 27.49 Q 127.733 28.972 128.783 30.953 L 128.783 30.953 L 128.783 30.953 Q 129.833 32.934 129.833 35.251 L 129.833 35.251 L 129.833 58.026 L 118.662 58.026 L 118.662 53.35 L 118.402 53.35 L 118.402 53.35 Q 117.406 55.212 115.988 56.359 L 115.988 56.359 L 115.988 56.359 Q 114.57 57.507 112.762 58.026 L 112.762 58.026 L 112.762 58.026 Q 110.954 58.546 108.79 58.546 Z  M 112.686 51.012 L 112.686 51.012 L 112.686 51.012 Q 114.05 51.012 115.252 50.449 L 115.252 50.449 L 115.252 50.449 Q 116.453 49.886 117.211 48.825 L 117.211 48.825 L 117.211 48.825 Q 117.969 47.764 117.969 46.249 L 117.969 46.249 L 117.969 43.478 L 117.969 43.478 Q 117.493 43.673 116.962 43.846 L 116.962 43.846 L 116.962 43.846 Q 116.432 44.019 115.836 44.171 L 115.836 44.171 L 115.836 44.171 Q 115.241 44.322 114.581 44.452 L 114.581 44.452 L 114.581 44.452 Q 113.92 44.582 113.206 44.69 L 113.206 44.69 L 113.206 44.69 Q 111.82 44.907 110.944 45.394 L 110.944 45.394 L 110.944 45.394 Q 110.067 45.881 109.645 46.584 L 109.645 46.584 L 109.645 46.584 Q 109.223 47.288 109.223 48.154 L 109.223 48.154 L 109.223 48.154 Q 109.223 49.54 110.197 50.276 L 110.197 50.276 L 110.197 50.276 Q 111.171 51.012 112.686 51.012 Z  M 150.115 42.179 L 143.88 50.146 L 143.967 35.944 L 145.525 35.944 L 153.579 24.772 L 167.002 24.772 L 153.492 42.179 L 150.115 42.179 Z  M 145.092 58.026 L 133.142 58.026 L 133.142 13.688 L 145.092 13.688 L 145.092 58.026 Z  M 167.348 58.026 L 153.666 58.026 L 146.045 44.863 L 153.839 36.377 L 167.348 58.026 Z  M 182.261 58.632 L 182.261 58.632 L 182.261 58.632 Q 176.936 58.632 173.093 56.587 L 173.093 56.587 L 173.093 56.587 Q 169.25 54.541 167.182 50.698 L 167.182 50.698 L 167.182 50.698 Q 165.115 46.855 165.115 41.486 L 165.115 41.486 L 165.115 41.486 Q 165.115 36.333 167.193 32.48 L 167.193 32.48 L 167.193 32.48 Q 169.272 28.626 173.06 26.483 L 173.06 26.483 L 173.06 26.483 Q 176.849 24.339 182.002 24.339 L 182.002 24.339 L 182.002 24.339 Q 185.769 24.339 188.821 25.509 L 188.821 25.509 L 188.821 25.509 Q 191.874 26.678 194.039 28.897 L 194.039 28.897 L 194.039 28.897 Q 196.204 31.116 197.373 34.277 L 197.373 34.277 L 197.373 34.277 Q 198.542 37.437 198.542 41.399 L 198.542 41.399 L 198.542 44.171 L 168.839 44.171 L 168.839 37.589 L 187.544 37.589 L 187.544 37.589 Q 187.522 36.16 186.819 35.067 L 186.819 35.067 L 186.819 35.067 Q 186.115 33.974 184.935 33.357 L 184.935 33.357 L 184.935 33.357 Q 183.755 32.74 182.261 32.74 L 182.261 32.74 L 182.261 32.74 Q 180.811 32.74 179.598 33.357 L 179.598 33.357 L 179.598 33.357 Q 178.386 33.974 177.661 35.056 L 177.661 35.056 L 177.661 35.056 Q 176.936 36.139 176.892 37.589 L 176.892 37.589 L 176.892 44.69 L 176.892 44.69 Q 176.892 46.292 177.563 47.548 L 177.563 47.548 L 177.563 47.548 Q 178.235 48.804 179.49 49.518 L 179.49 49.518 L 179.49 49.518 Q 180.746 50.232 182.521 50.232 L 182.521 50.232 L 182.521 50.232 Q 183.755 50.232 184.784 49.886 L 184.784 49.886 L 184.784 49.886 Q 185.812 49.54 186.548 48.879 L 186.548 48.879 L 186.548 48.879 Q 187.284 48.219 187.63 47.288 L 187.63 47.288 L 198.542 47.288 L 198.542 47.288 Q 197.979 50.752 195.879 53.296 L 195.879 53.296 L 195.879 53.296 Q 193.779 55.84 190.326 57.236 L 190.326 57.236 L 190.326 57.236 Q 186.873 58.632 182.261 58.632 Z  M 200.985 58.719 L 200.985 24.772 L 212.935 24.772 L 212.935 58.979 L 212.935 58.979 Q 212.935 63.352 211.095 65.896 L 211.095 65.896 L 211.095 65.896 Q 209.255 68.44 205.91 69.468 L 205.91 69.468 L 205.91 69.468 Q 202.565 70.496 198.04 70.323 L 198.04 70.323 L 198.04 70.323 Q 197.586 70.302 197.088 70.302 L 197.088 70.302 L 197.088 70.302 Q 196.59 70.302 195.876 70.237 L 195.876 70.237 L 195.876 61.404 L 195.876 61.404 Q 196.309 61.447 196.622 61.469 L 196.622 61.469 L 196.622 61.469 Q 196.936 61.49 197.261 61.49 L 197.261 61.49 L 197.261 61.49 Q 199.404 61.49 200.195 60.83 L 200.195 60.83 L 200.195 60.83 Q 200.985 60.17 200.985 58.719 L 200.985 58.719 Z  M 206.982 21.309 L 206.982 21.309 L 206.982 21.309 Q 204.535 21.309 202.803 19.706 L 202.803 19.706 L 202.803 19.706 Q 201.071 18.104 201.071 15.853 L 201.071 15.853 L 201.071 15.853 Q 201.071 13.601 202.803 11.999 L 202.803 11.999 L 202.803 11.999 Q 204.535 10.397 206.96 10.397 L 206.96 10.397 L 206.96 10.397 Q 209.407 10.397 211.128 11.999 L 211.128 11.999 L 211.128 11.999 Q 212.849 13.601 212.849 15.853 L 212.849 15.853 L 212.849 15.853 Q 212.849 18.104 211.128 19.706 L 211.128 19.706 L 211.128 19.706 Q 209.407 21.309 206.982 21.309 Z  M 228.541 39.321 L 228.541 39.321 L 228.541 58.026 L 216.591 58.026 L 216.591 24.772 L 227.935 24.772 L 227.935 31.094 L 228.282 31.094 L 228.282 31.094 Q 229.364 27.933 232.103 26.136 L 232.103 26.136 L 232.103 26.136 Q 234.841 24.339 238.5 24.339 L 238.5 24.339 L 238.5 24.339 Q 242.029 24.339 244.638 25.952 L 244.638 25.952 L 244.638 25.952 Q 247.247 27.565 248.686 30.38 L 248.686 30.38 L 248.686 30.38 Q 250.126 33.194 250.104 36.81 L 250.104 36.81 L 250.104 58.026 L 238.154 58.026 L 238.154 39.321 L 238.154 39.321 Q 238.175 36.853 236.909 35.446 L 236.909 35.446 L 236.909 35.446 Q 235.642 34.038 233.391 34.038 L 233.391 34.038 L 233.391 34.038 Q 231.919 34.038 230.825 34.677 L 230.825 34.677 L 230.825 34.677 Q 229.732 35.316 229.148 36.496 L 229.148 36.496 L 229.148 36.496 Q 228.563 37.676 228.541 39.321 Z  M 251.941 24.772 L 263.892 24.772 L 268.741 35.078 L 273.85 24.772 L 285.714 24.772 L 276.795 41.399 L 286.147 58.026 L 274.37 58.026 L 268.741 47.461 L 263.285 58.026 L 251.335 58.026 L 260.774 41.399 L 251.941 24.772 Z " fill="rgb(255,255,255)"/><path d=" M 78.406 39.383 L 62.943 23.001 C 61.993 21.993 60.406 21.947 59.398 22.898 C 58.392 23.848 58.345 25.435 59.296 26.443 L 73.135 41.103 L 59.296 55.766 C 58.345 56.773 58.392 58.359 59.398 59.31 C 59.883 59.768 60.502 59.994 61.119 59.994 C 61.786 59.994 62.451 59.73 62.943 59.209 L 78.406 42.826 C 79.318 41.859 79.318 40.349 78.406 39.383 Z " fill="rgb(255,255,255)"/><path d=" M 32.018 55.765 L 18.18 41.103 L 32.018 26.442 C 32.968 25.435 32.922 23.847 31.915 22.897 C 30.909 21.947 29.32 21.993 28.37 23 L 12.907 39.382 C 11.995 40.348 11.995 41.859 12.907 42.825 L 28.371 59.208 C 28.864 59.731 29.529 59.994 30.195 59.994 C 30.812 59.994 31.431 59.767 31.915 59.31 C 32.923 58.359 32.968 56.772 32.018 55.765 Z " fill="rgb(255,255,255)"/><path d=" M 49.713 14.552 C 48.345 14.345 47.065 15.284 46.856 16.652 L 42.727 43.674 L 39.5 64.797 C 39.291 66.166 40.232 67.446 41.601 67.655 C 41.729 67.674 41.856 67.683 41.983 67.683 C 43.201 67.683 44.269 66.795 44.458 65.554 C 45.549 58.417 48.001 42.368 51.814 17.41 C 52.023 16.04 51.083 14.761 49.713 14.552 Z " fill="rgb(255,255,255)"/></g></svg>