<?xml version="1.0" encoding="UTF-8" standalone="no"?><!-- Generator: Gravit.io --><svg xmlns="http://www.w3.org/2000/svg" xmlns:xlink="http://www.w3.org/1999/xlink" style="isolation:isolate" viewBox="0 0 50 50" width="50pt" height="50pt"><defs><clipPath id="_clipPath_udaghbkRnWXfDUD7IFuf2f1qzJKU46Tc"><rect width="50" height="50"/></clipPath></defs><g clip-path="url(#_clipPath_udaghbkRnWXfDUD7IFuf2f1qzJKU46Tc)"><path d=" M 43.75 0 L 6.25 0 C 2.803 0 0 2.803 0 6.25 L 0 43.75 C 0 47.197 2.803 50 6.25 50 L 25 50 L 25 32.813 L 18.75 32.813 L 18.75 25 L 25 25 L 25 18.75 C 25 13.572 29.197 9.375 34.375 9.375 L 40.625 9.375 L 40.625 17.188 L 37.5 17.188 C 35.775 17.188 34.375 17.025 34.375 18.75 L 34.375 25 L 42.188 25 L 39.063 32.813 L 34.375 32.813 L 34.375 50 L 43.75 50 C 47.197 50 50 47.197 50 43.75 L 50 6.25 C 50 2.803 47.197 0 43.75 0 Z " fill="rgb(255,255,255)"/></g></svg>