<?xml version="1.0" encoding="UTF-8" standalone="no"?><!-- Generator: Gravit.io --><svg xmlns="http://www.w3.org/2000/svg" xmlns:xlink="http://www.w3.org/1999/xlink" style="isolation:isolate" viewBox="0 0 20 20" width="20pt" height="20pt"><defs><clipPath id="_clipPath_e9qIjzxYIQOM4JRJAiCOI3jv8qDwv1nv"><rect width="20" height="20"/></clipPath></defs><g clip-path="url(#_clipPath_e9qIjzxYIQOM4JRJAiCOI3jv8qDwv1nv)"><g><g><path d=" M 9.999 0 C 4.478 0 0 4.566 0 10.198 C 0 14.703 2.865 18.524 6.84 19.874 C 7.34 19.968 7.523 19.653 7.523 19.383 C 7.523 19.14 7.514 18.499 7.509 17.648 C 4.728 18.264 4.14 16.281 4.14 16.281 C 3.686 15.103 3.03 14.789 3.03 14.789 C 2.121 14.157 3.098 14.17 3.098 14.17 C 4.101 14.242 4.629 15.221 4.629 15.221 C 5.521 16.779 6.97 16.329 7.54 16.068 C 7.63 15.409 7.889 14.959 8.175 14.704 C 5.955 14.446 3.62 13.572 3.62 9.665 C 3.62 8.551 4.01 7.641 4.65 6.927 C 4.546 6.67 4.204 5.632 4.748 4.229 C 4.748 4.229 5.588 3.955 7.498 5.274 C 8.295 5.048 9.15 4.935 10.001 4.931 C 10.85 4.936 11.706 5.048 12.505 5.275 C 14.414 3.956 15.253 4.231 15.253 4.231 C 15.798 5.635 15.455 6.671 15.353 6.929 C 15.994 7.642 16.38 8.553 16.38 9.666 C 16.38 13.583 14.043 14.445 11.815 14.698 C 12.174 15.013 12.494 15.635 12.494 16.586 C 12.494 17.949 12.481 19.049 12.481 19.383 C 12.481 19.656 12.661 19.973 13.169 19.873 C 17.138 18.522 20 14.702 20 10.198 C 20 4.566 15.522 0 9.999 0 Z " fill="rgb(255,255,255)"/></g></g></g></svg>