<?xml version="1.0" encoding="UTF-8" standalone="no"?><!-- Generator: Gravit.io --><svg xmlns="http://www.w3.org/2000/svg" xmlns:xlink="http://www.w3.org/1999/xlink" style="isolation:isolate" viewBox="0 0 20 20" width="20pt" height="20pt"><defs><clipPath id="_clipPath_0KqvBMY5zjI7iHWWu87F6JXreyEijARW"><rect width="20" height="20"/></clipPath></defs><g clip-path="url(#_clipPath_0KqvBMY5zjI7iHWWu87F6JXreyEijARW)"><g><g><path d=" M 20 3.924 C 19.256 4.25 18.464 4.466 17.638 4.571 C 18.488 4.064 19.136 3.266 19.441 2.305 C 18.649 2.777 17.774 3.111 16.841 3.297 C 16.089 2.496 15.016 2 13.846 2 C 11.576 2 9.749 3.842 9.749 6.101 C 9.749 6.426 9.776 6.739 9.844 7.036 C 6.435 6.87 3.419 5.236 1.393 2.747 C 1.039 3.361 0.831 4.064 0.831 4.82 C 0.831 6.24 1.563 7.499 2.653 8.228 C 1.994 8.215 1.348 8.024 0.8 7.723 C 0.8 7.735 0.8 7.751 0.8 7.768 C 0.8 9.76 2.221 11.415 4.085 11.796 C 3.751 11.887 3.388 11.931 3.01 11.931 C 2.748 11.931 2.483 11.916 2.234 11.861 C 2.765 13.485 4.273 14.679 6.065 14.718 C 4.67 15.809 2.899 16.466 0.981 16.466 C 0.645 16.466 0.323 16.451 0 16.41 C 1.816 17.581 3.969 18.25 6.29 18.25 C 13.835 18.25 17.96 12 17.96 6.583 C 17.96 6.401 17.954 6.226 17.945 6.052 C 18.759 5.475 19.443 4.754 20 3.924 Z " fill="rgb(255,255,255)"/></g></g></g></svg>